<svg width="761" height="479" viewBox="0 0 761 479" fill="none" xmlns="http://www.w3.org/2000/svg">
<g filter="url(#filter0_d_213_435)">
<path fill-rule="evenodd" clip-rule="evenodd" d="M483.002 64.1107C476.482 61.9546 469.449 65.492 467.293 72.0117L408.771 248.976C407.736 252.106 407.986 255.52 409.468 258.466L497.662 433.812C500.747 439.947 508.222 442.418 514.356 439.333L749.842 320.891C755.977 317.805 758.448 310.331 755.363 304.196L667.169 128.85C665.688 125.904 663.096 123.668 659.965 122.632L483.002 64.1107Z" fill="url(#paint0_linear_213_435)"/>
<path fill-rule="evenodd" clip-rule="evenodd" d="M407.125 253.804C407.125 253.804 407.125 253.804 407.125 253.804C407.125 253.804 407.125 253.804 407.125 253.804L588.978 313.943C595.498 316.099 602.531 312.561 604.687 306.041L655.401 152.688C658.879 142.17 673.336 141.109 678.314 151.005L755.333 304.134C758.419 310.269 755.947 317.744 749.812 320.829L514.327 439.271C508.192 442.357 500.718 439.885 497.632 433.75L407.125 253.804C407.125 253.804 407.125 253.804 407.125 253.804L407.125 253.804Z" fill="#35648C"/>
<path d="M548.968 202.959C570.313 192.223 578.914 166.217 568.178 144.873C557.443 123.528 531.437 114.927 510.092 125.663C488.748 136.398 480.147 162.404 490.882 183.749C501.618 205.093 527.624 213.694 548.968 202.959Z" stroke="white" stroke-width="2.98351" stroke-miterlimit="10"/>
<path d="M523.636 165.606C522.856 174.213 512.153 179.229 504.765 175.097C512.463 174.531 518.714 171.955 523.636 165.606Z" fill="white"/>
<path d="M552.955 150.86C552.175 159.467 541.472 164.483 534.084 160.351C541.782 159.785 548.033 157.209 552.955 150.86Z" fill="white"/>
<path d="M539.584 184.301C541.792 183.191 542.682 180.5 541.572 178.292C540.461 176.084 537.771 175.195 535.563 176.305C533.355 177.416 532.465 180.106 533.576 182.314C534.686 184.522 537.376 185.412 539.584 184.301Z" stroke="white" stroke-width="2.98351" stroke-miterlimit="10"/>
</g>
<g filter="url(#filter1_d_213_435)">
<rect x="209.133" y="203.883" width="237.553" height="176.117" rx="10.2393" transform="rotate(30 209.133 203.883)" fill="#35648C"/>
<path fill-rule="evenodd" clip-rule="evenodd" d="M195.413 227.648L126.257 347.429C123.43 352.326 125.108 358.589 130.005 361.416L317.997 469.953C322.894 472.781 329.156 471.103 331.984 466.205L401.139 346.424L258.263 371.995C252.696 372.991 246.627 369.487 244.706 364.168L195.413 227.648Z" fill="url(#paint1_linear_213_435)"/>
</g>
<g filter="url(#filter2_d_213_435)">
<rect x="2" y="180.127" width="119.917" height="88.9038" rx="5.16883" transform="rotate(-6.67389 2 180.127)" fill="#35648C"/>
<rect x="2" y="180.127" width="119.917" height="88.9038" rx="5.16883" transform="rotate(-6.67389 2 180.127)" fill="url(#paint2_linear_213_435)"/>
<path fill-rule="evenodd" clip-rule="evenodd" d="M3.60986 193.885L11.7241 263.232C12.0559 266.067 14.6233 268.096 17.4587 267.765L126.295 255.03C129.131 254.698 131.16 252.13 130.828 249.295L122.714 179.949L72.5764 233.379C70.623 235.46 67.1091 235.871 64.7279 234.297L3.60986 193.885Z" fill="#35648C"/>
<path d="M110.054 230.675L111.339 230.637C111.145 230.883 110.991 231.079 110.836 231.276C110.681 231.473 110.507 231.695 110.333 231.916C109.507 232.84 108.999 233.435 108.786 233.706L108.322 234.297L109.712 246.179C109.871 247.546 109.957 248.273 109.926 248.389C109.902 248.57 109.884 248.796 109.847 249.046C109.766 249.301 109.662 249.559 109.51 249.778C109.363 250.041 109.189 250.262 108.969 250.467C108.767 250.647 108.542 250.807 108.313 250.946C108.085 251.084 107.959 251.144 107.937 251.146C107.915 251.149 107.611 248.548 107.005 243.367L106.097 235.607L105.878 235.633C105.705 235.675 105.472 235.77 105.151 235.874C104.805 235.959 104.608 235.982 104.583 235.963C104.54 235.968 104.529 235.88 104.511 235.725C104.493 235.571 104.587 235.426 104.769 235.271C104.888 235.145 105.15 234.913 105.535 234.6C105.896 234.267 106.211 233.918 106.477 233.529C106.742 233.141 107.143 232.58 107.656 231.827L108.431 230.664L108.655 230.682C108.655 230.682 109.23 230.66 110.098 230.67L110.054 230.675ZM117.14 229.31L117.511 232.485L122.51 231.9L122.618 232.826L117.619 233.41L118.421 240.267C118.957 244.852 119.238 247.255 119.218 247.458C119.202 247.706 119.145 247.981 119.047 248.283C118.949 248.585 118.783 248.872 118.57 249.143C118.357 249.414 118.117 249.643 117.848 249.809C117.556 249.977 117.369 250.088 117.309 250.14L117.155 250.158L115.229 233.69L109.968 234.305L109.859 233.379L115.121 232.764L114.75 229.59L117.162 229.308L117.14 229.31ZM112.686 235.507L113.429 241.856C113.918 246.044 114.135 248.276 114.073 248.507C114.011 248.738 113.927 248.971 113.8 249.209C113.718 249.465 113.571 249.728 113.353 249.954C113.155 250.156 112.954 250.336 112.73 250.519C112.458 250.662 112.291 250.749 112.23 250.801L112.082 250.863L111.203 243.345C110.612 238.297 110.318 235.784 110.34 235.781L112.686 235.507ZM122.377 234.374L123.114 240.679L123.807 246.989L123.703 247.425C123.627 247.725 123.543 247.958 123.476 248.145C123.382 248.29 123.249 248.484 123.055 248.73C122.857 248.932 122.675 249.088 122.469 249.223C122.262 249.359 122.097 249.468 121.93 249.555L121.715 249.624L119.965 234.656L122.377 234.374Z" fill="white"/>
</g>
<defs>
<filter id="filter0_d_213_435" x="341.234" y="0" width="423.143" height="451.773" filterUnits="userSpaceOnUse" color-interpolation-filters="sRGB">
<feFlood flood-opacity="0" result="BackgroundImageFix"/>
<feColorMatrix in="SourceAlpha" type="matrix" values="0 0 0 0 0 0 0 0 0 0 0 0 0 0 0 0 0 0 127 0" result="hardAlpha"/>
<feOffset dy="3.4266"/>
<feGaussianBlur stdDeviation="1.7133"/>
<feComposite in2="hardAlpha" operator="out"/>
<feColorMatrix type="matrix" values="0 0 0 0 0 0 0 0 0 0 0 0 0 0 0 0 0 0 0.25 0"/>
<feBlend mode="normal" in2="BackgroundImageFix" result="effect1_dropShadow_213_435"/>
<feBlend mode="normal" in="SourceGraphic" in2="effect1_dropShadow_213_435" result="shape"/>
</filter>
<filter id="filter1_d_213_435" x="117.648" y="203.883" width="300.639" height="278.151" filterUnits="userSpaceOnUse" color-interpolation-filters="sRGB">
<feFlood flood-opacity="0" result="BackgroundImageFix"/>
<feColorMatrix in="SourceAlpha" type="matrix" values="0 0 0 0 0 0 0 0 0 0 0 0 0 0 0 0 0 0 127 0" result="hardAlpha"/>
<feOffset dy="3.4266"/>
<feGaussianBlur stdDeviation="1.7133"/>
<feComposite in2="hardAlpha" operator="out"/>
<feColorMatrix type="matrix" values="0 0 0 0 0 0 0 0 0 0 0 0 0 0 0 0 0 0 0.25 0"/>
<feBlend mode="normal" in2="BackgroundImageFix" result="effect1_dropShadow_213_435"/>
<feBlend mode="normal" in="SourceGraphic" in2="effect1_dropShadow_213_435" result="shape"/>
</filter>
<filter id="filter2_d_213_435" x="-0.522141" y="166.19" width="134.481" height="107.282" filterUnits="userSpaceOnUse" color-interpolation-filters="sRGB">
<feFlood flood-opacity="0" result="BackgroundImageFix"/>
<feColorMatrix in="SourceAlpha" type="matrix" values="0 0 0 0 0 0 0 0 0 0 0 0 0 0 0 0 0 0 127 0" result="hardAlpha"/>
<feOffset dy="2.52214"/>
<feGaussianBlur stdDeviation="1.26107"/>
<feComposite in2="hardAlpha" operator="out"/>
<feColorMatrix type="matrix" values="0 0 0 0 0 0 0 0 0 0 0 0 0 0 0 0 0 0 0.25 0"/>
<feBlend mode="normal" in2="BackgroundImageFix" result="effect1_dropShadow_213_435"/>
<feBlend mode="normal" in="SourceGraphic" in2="effect1_dropShadow_213_435" result="shape"/>
</filter>
<linearGradient id="paint0_linear_213_435" x1="598.179" y1="21.7594" x2="723.309" y2="270.541" gradientUnits="userSpaceOnUse">
<stop stop-color="#35648C"/>
<stop offset="1" stop-color="#F2E8C9"/>
</linearGradient>
<linearGradient id="paint1_linear_213_435" x1="387.807" y1="347.261" x2="329.202" y2="448.767" gradientUnits="userSpaceOnUse">
<stop stop-color="#35648C"/>
<stop offset="1" stop-color="#F2E8C9"/>
</linearGradient>
<linearGradient id="paint2_linear_213_435" x1="116.299" y1="184.55" x2="116.299" y2="254.697" gradientUnits="userSpaceOnUse">
<stop stop-color="#35648C"/>
<stop offset="1" stop-color="#F2E8C9"/>
</linearGradient>
</defs>
</svg>
