<svg width="117" height="68" viewBox="0 0 117 68" fill="none" xmlns="http://www.w3.org/2000/svg">
<g filter="url(#filter0_dd_55_255)">
<rect x="10" y="10" width="97" height="48" rx="24" fill="white"/>
<path d="M52 26.9635V25.5C52 24.6716 52.6716 24 53.5 24H66.5C67.3284 24 68 24.6716 68 25.5V38.5C68 39.3284 67.3284 40 66.5 40H65.0087" stroke="#35648C" stroke-width="2"/>
<rect x="48" y="27" width="17" height="17" rx="1.5" stroke="#35648C" stroke-width="2" stroke-linejoin="round"/>
<path d="M55.2198 33.5548L57.866 30.8C58.5918 30.0742 59.7846 30.0902 60.5302 30.8358C61.2757 31.5813 61.2917 32.7741 60.5659 33.4999L59.6108 34.5113" stroke="#35648C" stroke-width="2" stroke-linecap="round" stroke-linejoin="round"/>
<path d="M52.7331 36.3735C52.4779 36.6286 51.9503 37.1381 51.9503 37.1381C51.2245 37.8639 51.2047 39.1576 51.9503 39.9032C52.6958 40.6487 53.8886 40.6647 54.6144 39.9389L57.1966 37.5947" stroke="#35648C" stroke-width="2" stroke-linecap="round" stroke-linejoin="round"/>
<path d="M55.3315 36.1638C54.9852 35.8175 54.7963 35.3747 54.7661 34.927C54.7312 34.4109 54.9071 33.8884 55.2958 33.4997" stroke="#35648C" stroke-width="2" stroke-linecap="round" stroke-linejoin="round"/>
<path d="M57.1609 34.9304C57.9064 35.676 57.9224 36.8687 57.1966 37.5946" stroke="#35648C" stroke-width="2" stroke-linecap="round" stroke-linejoin="round"/>
</g>
<defs>
<filter id="filter0_dd_55_255" x="0.760684" y="0.760684" width="115.479" height="66.4786" filterUnits="userSpaceOnUse" color-interpolation-filters="sRGB">
<feFlood flood-opacity="0" result="BackgroundImageFix"/>
<feColorMatrix in="SourceAlpha" type="matrix" values="0 0 0 0 0 0 0 0 0 0 0 0 0 0 0 0 0 0 127 0" result="hardAlpha"/>
<feMorphology radius="2" operator="dilate" in="SourceAlpha" result="effect1_dropShadow_55_255"/>
<feOffset/>
<feGaussianBlur stdDeviation="3.61966"/>
<feComposite in2="hardAlpha" operator="out"/>
<feColorMatrix type="matrix" values="0 0 0 0 0.207843 0 0 0 0 0.392157 0 0 0 0 0.54902 0 0 0 0.35 0"/>
<feBlend mode="normal" in2="BackgroundImageFix" result="effect1_dropShadow_55_255"/>
<feColorMatrix in="SourceAlpha" type="matrix" values="0 0 0 0 0 0 0 0 0 0 0 0 0 0 0 0 0 0 127 0" result="hardAlpha"/>
<feOffset dy="4"/>
<feGaussianBlur stdDeviation="2"/>
<feComposite in2="hardAlpha" operator="out"/>
<feColorMatrix type="matrix" values="0 0 0 0 0 0 0 0 0 0 0 0 0 0 0 0 0 0 0.25 0"/>
<feBlend mode="normal" in2="effect1_dropShadow_55_255" result="effect2_dropShadow_55_255"/>
<feBlend mode="normal" in="SourceGraphic" in2="effect2_dropShadow_55_255" result="shape"/>
</filter>
</defs>
</svg>
